<?xml version="1.0" encoding="UTF-8"?> <svg xmlns="http://www.w3.org/2000/svg" width="103" height="50" viewBox="0 0 103 50" fill="none"><g clip-path="url(#clip0_2394_24030)"><path d="M35.7475 23.1137H37.838C38.1749 23.1137 38.5118 23.2493 38.7818 23.484C39.0517 23.7509 39.2202 24.0889 39.2202 24.4914V41.9688C39.2202 42.8406 38.7148 43.3465 37.838 43.3465H35.7475C34.8706 43.3465 34.3653 42.8428 34.3653 41.9688V24.4914C34.3653 23.6174 34.8706 23.1137 35.7475 23.1137Z" fill="white"></path><path d="M25.1241 23.6842C26.0678 24.1211 26.9101 24.6916 27.653 25.3976H27.6509C28.3592 26.1381 28.9337 26.9454 29.3721 27.8861C29.776 28.7945 29.979 29.8363 29.979 30.9127V41.9344C29.979 42.2702 29.8429 42.606 29.6075 42.875C29.3376 43.1764 28.9985 43.312 28.5947 43.312H26.5041C26.1002 43.312 25.7633 43.1764 25.4934 42.875C25.2558 42.606 25.1219 42.2702 25.1219 41.9344V30.9127C25.1219 30.071 24.8174 29.3994 24.2451 28.7945C23.6382 28.2219 22.8975 27.9205 22.053 27.9205C21.2086 27.9205 20.5348 28.2219 19.9279 28.7945C19.3535 29.3994 19.0511 30.0731 19.0511 30.9127V41.9344C19.0511 42.2702 18.915 42.606 18.6796 42.875C18.4097 43.1764 18.0706 43.312 17.6668 43.312H15.5762C15.1724 43.312 14.8354 43.1764 14.5655 42.875C14.3301 42.606 14.194 42.2702 14.194 41.9344V30.9127C14.194 30.071 13.9241 29.3994 13.3172 28.7945C12.7103 28.2219 12.0689 27.9205 11.1921 27.9205C10.3153 27.9205 9.6069 28.2219 9.00004 28.7945C8.42557 29.3994 8.12322 30.0731 8.12322 30.9127V41.9344C8.12322 42.2702 7.98716 42.606 7.75175 42.875C7.4818 43.1764 7.14273 43.312 6.73887 43.312H4.64832C4.31141 43.312 3.97451 43.1764 3.70455 42.875C3.43459 42.606 3.26614 42.3046 3.26614 41.9344V30.9127C3.26614 29.8363 3.5037 28.7945 3.90756 27.8861C4.31141 26.9454 4.88588 26.1037 5.59425 25.3976C6.33502 24.6916 7.17944 24.1211 8.12322 23.6842C10.0453 22.8791 12.3389 22.8791 14.2955 23.7186C15.1745 24.1211 15.9498 24.627 16.6236 25.2986C17.2996 24.627 18.0749 24.1211 18.9518 23.7186C20.9084 22.8769 23.2344 22.8769 25.1241 23.6842Z" fill="white"></path><path d="M39.1338 18.266C39.1338 19.5748 38.0691 20.6361 36.756 20.6361C35.4429 20.6361 34.3782 19.5748 34.3782 18.266C34.3782 16.9572 35.4429 15.896 36.756 15.896C38.0691 15.896 39.1338 16.9572 39.1338 18.266Z" fill="white"></path><path d="M79.513 18.266C79.513 19.5748 78.4483 20.6361 77.1331 20.6361C75.82 20.6361 74.7553 19.5748 74.7553 18.266C74.7553 16.9572 75.8178 15.896 77.1331 15.896C78.4483 15.896 79.513 16.9572 79.513 18.266Z" fill="white"></path><path d="M99.7318 24.5237V27.7657H99.7339C99.7339 28.8743 99.4985 29.9506 99.0601 30.9257C98.6908 31.7975 98.1509 32.5725 97.5095 33.2441C98.1487 33.8834 98.6886 34.6562 99.0601 35.4979C99.4985 36.473 99.7339 37.5149 99.7339 38.6579V42.0011C99.7339 42.3369 99.6 42.6727 99.3301 42.9418C99.0947 43.2453 98.7578 43.3788 98.3517 43.3788H96.2612C95.8552 43.3788 95.5183 43.2431 95.2483 42.9418C95.0107 42.6727 94.8768 42.3369 94.8768 42.0011V38.6579C94.8768 37.8162 94.5745 37.1102 94 36.5397C93.3931 35.9349 92.6848 35.6658 91.808 35.6658H88.806V42.0011C88.806 42.3369 88.67 42.6727 88.4346 42.9418C88.1646 43.2453 87.8255 43.3788 87.4217 43.3788H85.3311C84.9273 43.3788 84.5904 43.2431 84.3204 42.9418C84.0828 42.6727 83.949 42.3369 83.949 42.0011V24.5237C83.949 23.6497 84.4543 23.146 85.3311 23.146H87.4217C88.3007 23.146 88.806 23.6497 88.806 24.5237V30.8245H91.808C92.6848 30.8245 93.3931 30.5232 94 29.9506C94.5745 29.3457 94.8768 28.6396 94.8768 27.7657V24.5237C94.8768 23.6497 95.3822 23.146 96.259 23.146H98.3496C99.2264 23.146 99.7318 23.6497 99.7318 24.5237Z" fill="white"></path><path d="M76.0856 23.1137H78.1783C78.5152 23.1137 78.8521 23.2493 79.1221 23.484C79.3921 23.7509 79.5605 24.0889 79.5605 24.4914V41.9688C79.5605 42.8406 79.0552 43.3465 78.1783 43.3465H76.0856C75.2088 43.3465 74.7034 42.8428 74.7034 41.9688V24.4914C74.7034 23.6174 75.2088 23.1137 76.0856 23.1137Z" fill="white"></path><path d="M65.4644 23.6842C66.4082 24.1211 67.2504 24.6916 67.9934 25.3976C68.7017 26.1381 69.274 26.9454 69.7124 27.8861C70.1163 28.7945 70.3193 29.8363 70.3193 30.9127V41.9344C70.3193 42.2702 70.1833 42.606 69.9479 42.875C69.6801 43.1764 69.3432 43.312 68.9371 43.312H66.8466C66.4406 43.312 66.1037 43.1764 65.8337 42.875C65.5983 42.606 65.4622 42.2702 65.4622 41.9344V30.9127C65.4622 30.071 65.1577 29.3994 64.5854 28.7945C63.9786 28.2219 63.2378 27.9205 62.3934 27.9205C61.5489 27.9205 60.8751 28.2219 60.2683 28.7945C59.6938 29.3994 59.3914 30.0731 59.3914 30.9127V41.9344C59.3914 42.2702 59.2554 42.606 59.02 42.875C58.75 43.1764 58.4109 43.312 58.0071 43.312H55.9165C55.5127 43.312 55.1758 43.1764 54.9058 42.875C54.6682 42.606 54.5344 42.2702 54.5344 41.9344V30.9127C54.5344 30.071 54.2644 29.3994 53.6575 28.7945C53.0507 28.2219 52.4092 27.9205 51.5324 27.9205C50.6556 27.9205 49.9472 28.2219 49.3404 28.7945C48.7681 29.3994 48.4635 30.0731 48.4635 30.9127V41.9344C48.4635 42.2702 48.3275 42.606 48.0921 42.875C47.82 43.1764 47.4852 43.312 47.0792 43.312H44.9886C44.6517 43.312 44.3148 43.1764 44.0449 42.875C43.7749 42.606 43.6065 42.3046 43.6065 41.9344V30.9127C43.6065 29.8363 43.844 28.7945 44.2479 27.8861C44.6517 26.9454 45.2262 26.1037 45.9346 25.3976C46.6753 24.6916 47.5198 24.1211 48.4635 23.6842C50.3856 22.8791 52.6792 22.8791 54.6359 23.7186C55.5127 24.1211 56.288 24.627 56.964 25.2986C57.6399 24.627 58.4153 24.1211 59.2921 23.7186C61.2487 22.8769 63.5747 22.8769 65.4644 23.6842Z" fill="white"></path><path d="M56.9 6.62124C56.0037 6.62124 55.2759 7.34451 55.2759 8.24C55.2759 9.13549 56.0016 9.85877 56.9 9.85877C57.7984 9.85877 58.5241 9.13549 58.5241 8.24C58.5241 7.34451 57.7984 6.62124 56.9 6.62124ZM43.6029 11.2192C42.5123 11.2192 41.629 12.0997 41.629 13.1867C41.629 14.2738 42.5123 15.1542 43.6029 15.1542C44.6936 15.1542 45.5769 14.2738 45.5769 13.1867C45.5769 12.0997 44.6936 11.2192 43.6029 11.2192ZM49.9178 7.89128C49.0215 7.89128 48.2959 8.61671 48.2959 9.51005C48.2959 10.4034 49.0237 11.1288 49.9178 11.1288C50.8119 11.1288 51.5419 10.4034 51.5419 9.51005C51.5419 8.61671 50.8162 7.89128 49.9178 7.89128ZM70.1668 11.2192C69.0762 11.2192 68.1929 12.0997 68.1929 13.1867C68.1929 14.2738 69.0762 15.1542 70.1668 15.1542C71.2574 15.1542 72.1407 14.2738 72.1407 13.1867C72.1407 12.0997 71.2574 11.2192 70.1668 11.2192ZM63.772 7.89128C62.8758 7.89128 62.148 8.61671 62.148 9.51005C62.148 10.4034 62.8758 11.1288 63.772 11.1288C64.6683 11.1288 65.3961 10.4034 65.3961 9.51005C65.3961 8.61671 64.6683 7.89128 63.772 7.89128Z" fill="url(#paint0_linear_2394_24030)"></path></g><defs><linearGradient id="paint0_linear_2394_24030" x1="41.629" y1="10.8856" x2="72.1407" y2="10.8856" gradientUnits="userSpaceOnUse"><stop stop-color="#DF3535"></stop><stop offset="0.149516" stop-color="#F27D2E"></stop><stop offset="0.36221" stop-color="#F6921E"></stop><stop offset="0.544725" stop-color="#FFC800"></stop><stop offset="0.706146" stop-color="#B1CF36"></stop><stop offset="0.770124" stop-color="#7BC62C"></stop><stop offset="0.876762" stop-color="#57BF6C"></stop><stop offset="0.98038" stop-color="#29B5BE"></stop></linearGradient><clipPath id="clip0_2394_24030"><rect width="96.4678" height="36.7575" fill="white" transform="translate(3.26611 6.62124)"></rect></clipPath></defs></svg> 